<?xml version="1.0" encoding="UTF-8"?>
<svg xmlns="http://www.w3.org/2000/svg" version="1.1" viewBox="0 0 992.1 566.9">
  <!-- Generator: Adobe Illustrator 29.5.1, SVG Export Plug-In . SVG Version: 2.1.0 Build 141)  -->
  <defs>
    <style>
      .st0 {
        fill: #fefadb;
      }

      .st0, .st1, .st2, .st3 {
        stroke: #1e1e1c;
        stroke-miterlimit: 10;
        stroke-width: 1px;
      }

      .st1 {
        fill: #efd4e8;
      }

      .st2 {
        fill: #c14693;
      }

      .st3 {
        fill: #d47db2;
      }
    </style>
  </defs>
  <g id="Lag_2">
    <rect class="st0" x="-18.3" y="-18.2" width="1028.7" height="603.2"/>
  </g>
  <g id="Lag_1">
    <g id="Lag_21" data-name="Lag_2">
      <path class="st2" d="M703.7,150.4l215.3-43c3.3,7.9,0,10.8,0,10.8l-76.5,232.6s.8,4.8-5.7,6.9c-6.5,2.1-213.7,82.6-213.7,82.6,0,0-5.8,1.7-8.4-.1-.8-.6-1.3-1.6-1.1-3.2.9-6.3,6.3-25.3,6.3-25.3l79.6-253.7s1.8-7.8,4.2-7.5h0Z"/>
      <path class="st2" d="M642.2,307.6l-220.4,60.8s-5.1.7,0,4,192.9,67.8,192.9,67.8l36.4-127.7,1.5-4.9h-10.4Z"/>
      <polygon class="st1" points="618.9 419.6 489.9 377.3 646.4 323.3 648.3 322.1 618.9 419.6"/>
      <polygon class="st1" points="526.7 344.2 547 352.4 621.2 328.2 602.6 322.1 526.7 344.2"/>
      <polygon class="st3" points="526.7 378.2 537.2 381.8 546 378.2 548.4 377.2 537.5 372.9 526.7 378.2"/>
      <polygon class="st3" points="543.7 370.2 554.2 373.9 563 370.2 565.4 369.3 554.6 364.9 543.7 370.2"/>
      <polygon class="st3" points="559.6 363.3 570.1 366.9 578.9 363.3 581.3 362.3 570.5 357.9 559.6 363.3"/>
      <polygon class="st3" points="575.6 356 586 359.6 594.8 356 597.3 355 586.4 350.7 575.6 356"/>
      <polygon class="st3" points="592.2 348.8 602.7 352.4 611.5 348.8 613.9 347.8 603.1 343.5 592.2 348.8"/>
      <polygon class="st3" points="610.3 341.4 620.8 345.1 629.6 341.4 632 340.5 621.2 336.1 610.3 341.4"/>
      <polygon class="st3" points="550 381.4 560.4 385.1 569.2 381.4 571.7 380.5 560.8 376.1 550 381.4"/>
      <polygon class="st3" points="566.4 373.7 576.9 377.4 585.7 373.7 588.1 372.8 577.3 368.4 566.4 373.7"/>
      <polygon class="st3" points="583.4 365.8 593.8 369.4 602.6 365.8 605 364.8 594.2 360.5 583.4 365.8"/>
      <polygon class="st3" points="598.3 358.8 608.7 362.4 617.6 358.8 620 357.8 609.1 353.5 598.3 358.8"/>
      <polygon class="st3" points="615 351.5 625.4 355.1 634.2 351.5 636.7 350.6 625.8 346.2 615 351.5"/>
      <polygon class="st3" points="536.1 389.1 546.5 392.8 555.4 389.1 557.8 388.2 546.9 383.8 536.1 389.1"/>
      <polygon class="st3" points="558.3 392.6 568.8 396.3 577.5 392.6 580 391.7 569.1 387.3 558.3 392.6"/>
      <polygon class="st3" points="574.8 384.2 585.3 387.8 594.1 384.2 596.5 383.2 585.7 378.9 574.8 384.2"/>
      <polygon class="st3" points="591.3 375.6 601.7 379.2 610.5 375.6 613 374.6 602.1 370.3 591.3 375.6"/>
      <polygon class="st3" points="607.9 367.7 618.4 371.4 627.2 367.7 629.6 366.8 618.8 362.4 607.9 367.7"/>
      <polygon class="st3" points="580.4 397.1 590.9 400.7 599.7 397.1 602.1 396.1 591.3 391.8 580.4 397.1"/>
      <polygon class="st3" points="596.5 388.1 607 391.8 615.8 388.1 618.2 387.2 607.4 382.8 596.5 388.1"/>
      <polygon class="st3" points="602.1 400.7 612.6 404.4 621.4 400.7 623.8 399.8 613 395.4 602.1 400.7"/>
      <polygon class="st3" points="626.2 333.7 637.6 339 643.4 335.2 645.2 331 639.3 328.9 626.2 333.7"/>
      <polygon class="st3" points="631.2 344.3 640.3 348.6 642.4 342.6 639.3 340.9 631.2 344.3"/>
      <polygon class="st3" points="622.5 359.6 633.5 365.5 635.7 364 638.6 356.3 635 353.9 622.5 359.6"/>
      <polygon class="st3" points="612.1 379.9 622.5 385.1 629.6 379.2 621.8 374.7 612.1 379.9"/>
      <polygon class="st3" points="626.2 372 632 376.2 633.6 370.9 631.2 369.4 626.2 372"/>
      <polygon class="st3" points="618.2 391.8 625.8 396.3 628.2 389.1 625.1 386.8 618.2 391.8"/>
    </g>
  </g>
</svg>