<?xml version="1.0" encoding="UTF-8"?>
<svg xmlns="http://www.w3.org/2000/svg" xmlns:xlink="http://www.w3.org/1999/xlink" version="1.1" viewBox="0 0 319 213">
  <!-- Generator: Adobe Illustrator 29.5.1, SVG Export Plug-In . SVG Version: 2.1.0 Build 141)  -->
  <defs>
    <style>
      .st0 {
        fill: none;
      }

      .st1 {
        fill: #c14593;
      }

      .st1, .st2, .st3, .st4 {
        stroke-miterlimit: 10;
      }

      .st1, .st3, .st4 {
        stroke: #1d1d1b;
        stroke-width: 1.3px;
      }

      .st2 {
        fill: #fffcd9;
        stroke: #000;
      }

      .st3 {
        fill: #efd3e7;
      }

      .st4 {
        fill: #d47db2;
      }

      .st5 {
        clip-path: url(#clippath);
      }
    </style>
    <clipPath id="clippath">
      <rect class="st0" x="5.8" y="4.1" width="306.7" height="204.8"/>
    </clipPath>
  </defs>
  <g id="Lag_2">
    <rect class="st2" y="0" width="318.3" height="212.6"/>
  </g>
  <g id="Lag_1">
    <g class="st5">
      <g>
        <path class="st1" d="M179.7,31.1L311,4.8c2,4.8,0,6.6,0,6.6l-46.6,141.9s.5,2.9-3.5,4.2c-4,1.3-130.3,50.4-130.3,50.4,0,0-3.6,1-5.1,0-.5-.4-.8-1-.7-1.9.6-3.9,3.9-15.4,3.9-15.4l48.5-154.7s1.1-4.7,2.5-4.6h0Z"/>
        <path class="st1" d="M142.2,126.9L7.8,164s-3.1.5,0,2.5c3.1,2,117.6,41.3,117.6,41.3l22.2-77.9.9-3h-6.3Z"/>
        <path class="st3" d="M128,195.2l-78.7-25.8,95.4-32.9,1.1-.7-17.9,59.4Z"/>
        <path class="st3" d="M71.8,149.2l12.4,5,45.2-14.8-11.3-3.7-46.3,13.4Z"/>
        <path class="st4" d="M71.8,170l6.4,2.2,5.4-2.2,1.5-.6-6.6-2.7-6.6,3.2Z"/>
        <path class="st4" d="M82.1,165.1l6.4,2.2,5.4-2.2,1.5-.6-6.6-2.7-6.6,3.2Z"/>
        <path class="st4" d="M91.8,160.9l6.4,2.2,5.4-2.2,1.5-.6-6.6-2.7-6.6,3.2Z"/>
        <path class="st4" d="M101.6,156.4l6.4,2.2,5.4-2.2,1.5-.6-6.6-2.7-6.6,3.2Z"/>
        <path class="st4" d="M111.7,152l6.4,2.2,5.4-2.2,1.5-.6-6.6-2.7-6.6,3.2Z"/>
        <path class="st4" d="M122.8,147.6l6.4,2.2,5.4-2.2,1.5-.6-6.6-2.7-6.6,3.2Z"/>
        <path class="st4" d="M86,172l6.4,2.2,5.4-2.2,1.5-.6-6.6-2.6-6.6,3.2Z"/>
        <path class="st4" d="M96,167.2l6.4,2.2,5.4-2.2,1.5-.6-6.6-2.7-6.6,3.2Z"/>
        <path class="st4" d="M106.3,162.4l6.4,2.2,5.4-2.2,1.5-.6-6.6-2.7-6.6,3.2Z"/>
        <path class="st4" d="M115.4,158.1l6.4,2.2,5.4-2.2,1.5-.6-6.6-2.6-6.6,3.2Z"/>
        <path class="st4" d="M125.6,153.7l6.4,2.2,5.4-2.2,1.5-.6-6.6-2.7-6.6,3.2Z"/>
        <path class="st4" d="M77.5,176.6l6.4,2.2,5.4-2.2,1.5-.6-6.6-2.7-6.6,3.2Z"/>
        <path class="st4" d="M91,178.8l6.4,2.2,5.4-2.2,1.5-.6-6.6-2.6-6.6,3.2Z"/>
        <path class="st4" d="M101.1,173.6l6.4,2.2,5.4-2.2,1.5-.6-6.6-2.7-6.6,3.2Z"/>
        <path class="st4" d="M111.1,168.4l6.4,2.2,5.4-2.2,1.5-.6-6.6-2.7-6.6,3.2Z"/>
        <path class="st4" d="M121.3,163.6l6.4,2.2,5.4-2.2,1.5-.6-6.6-2.7-6.6,3.2Z"/>
        <path class="st4" d="M104.5,181.5l6.4,2.2,5.4-2.2,1.5-.6-6.6-2.7-6.6,3.2Z"/>
        <path class="st4" d="M114.3,176l6.4,2.2,5.4-2.2,1.5-.6-6.6-2.7-6.6,3.2Z"/>
        <path class="st4" d="M117.8,183.7l6.4,2.2,5.4-2.2,1.5-.6-6.6-2.6-6.6,3.2Z"/>
        <path class="st4" d="M132.4,142.9l7,3.2,3.5-2.3,1.1-2.5-3.6-1.3-8,2.9Z"/>
        <path class="st4" d="M135.5,149.3l5.6,2.6,1.2-3.7-1.9-1-4.9,2.1Z"/>
        <path class="st4" d="M130.2,158.7l6.7,3.6,1.3-.9,1.7-4.7-2.2-1.5-7.6,3.5Z"/>
        <path class="st4" d="M123.8,171l6.4,3.2,4.3-3.6-4.8-2.7-5.9,3.1Z"/>
        <path class="st4" d="M132.4,166.2l3.5,2.6,1-3.3-1.5-.9-3.1,1.6Z"/>
        <path class="st4" d="M127.6,178.3l4.6,2.7,1.4-4.4-1.9-1.4-4.2,3.1Z"/>
      </g>
    </g>
  </g>
</svg>